<svg width="198" height="198" viewBox="0 0 198 198" fill="none" xmlns="http://www.w3.org/2000/svg">
<path d="M146.4 33.3333H159V20H38.9999V33.3333H51.5999C39.2652 45.733 32.3387 62.5101 32.3333 80C32.3333 106.467 47.7333 129.267 70.0666 140H127.933C139.242 134.576 148.785 126.064 155.462 115.447C162.139 104.831 165.676 92.5418 165.667 80C165.667 61.8 158.267 45.3333 146.4 33.3333ZM107.333 113.333C99.5999 113.333 92.7332 110.933 87.8666 107.8C83.4666 113.333 74.5333 113.333 65.6666 113.333C72.9999 113.333 75.6666 105.867 75.6666 96.6667C75.6666 87.4667 72.9999 80 65.6666 80C74.5333 80 83.4666 80 88.1333 86.0667C92.7332 82.4 99.5999 80 107.333 80C121.133 80 132.333 87.4667 132.333 96.6667C132.333 105.867 121.133 113.333 107.333 113.333ZM125.667 46.6667C109.4 58.0667 88.5999 58.0667 72.3333 46.6667C66.0666 51.0667 58.9999 53.9333 51.9999 55C54.3999 50.5333 57.4666 46.4 61.1333 42.7333L70.3332 33.3333H127.667L136.867 42.7333C140.494 46.3542 143.571 50.487 146 55C138.674 53.8152 131.717 50.9642 125.667 46.6667Z" fill="white"/>
<path d="M2.4 188.096C0.864 188.096 0.096 187.744 0.096 187.04C0.096 186.784 0.144 186.496 0.24 186.176L7.632 155.648C7.856 154.752 8.832 154.304 10.56 154.304H13.68C15.44 154.304 16.432 154.752 16.656 155.648L24.048 186.176C24.112 186.624 24.144 186.912 24.144 187.04C24.144 187.744 23.456 188.096 22.08 188.096H19.536C18 188.096 17.152 187.76 16.992 187.088L15.744 181.232H8.448L7.152 187.088C7.024 187.76 6.272 188.096 4.896 188.096H2.4ZM14.928 175.376L12.768 165.2C12.544 164.048 12.352 162.832 12.192 161.552H11.952C11.792 162.832 11.6 164.048 11.376 165.2L9.264 175.376H14.928ZM49.0504 195.632C48.9224 195.632 48.6984 195.536 48.3784 195.344C48.0584 195.184 47.8184 195.056 47.6584 194.96C43.9784 192.752 39.0984 190.176 33.0184 187.232C30.7144 186.08 28.9704 184.208 27.7864 181.616C26.6344 178.992 26.0584 175.52 26.0584 171.2C26.0584 159.744 30.2504 154.016 38.6344 154.016C42.7304 154.016 45.8344 155.408 47.9464 158.192C50.0904 160.976 51.1624 165.312 51.1624 171.2C51.1624 179.2 49.1144 184.384 45.0184 186.752V186.944L51.6904 190.256C52.0744 190.416 52.2664 190.704 52.2664 191.12C52.2344 191.408 52.0424 191.92 51.6904 192.656C51.3384 193.424 50.9224 194.112 50.4424 194.72C49.9624 195.328 49.4984 195.632 49.0504 195.632ZM38.6824 182.192C39.8344 182.192 40.7624 181.872 41.4664 181.232C42.1704 180.56 42.6984 179.424 43.0504 177.824C43.4024 176.224 43.5784 174.016 43.5784 171.2C43.5784 168.416 43.4024 166.24 43.0504 164.672C42.6984 163.072 42.1704 161.952 41.4664 161.312C40.7624 160.672 39.8344 160.352 38.6824 160.352C37.5304 160.352 36.5864 160.672 35.8504 161.312C35.1464 161.952 34.6024 163.072 34.2184 164.672C33.8664 166.24 33.6904 168.416 33.6904 171.2C33.6904 174.016 33.8664 176.224 34.2184 177.824C34.6024 179.424 35.1464 180.56 35.8504 181.232C36.5864 181.872 37.5304 182.192 38.6824 182.192ZM66.9848 188.384C63.3688 188.384 60.5368 187.488 58.4888 185.696C56.4408 183.904 55.4168 181.392 55.4168 178.16V155.84C55.4168 154.816 56.3448 154.304 58.2008 154.304H60.1208C61.9768 154.304 62.9048 154.816 62.9048 155.84V177.68C62.9048 178.992 63.2728 180.064 64.0088 180.896C64.7448 181.696 65.7368 182.096 66.9848 182.096C68.2008 182.096 69.1768 181.68 69.9128 180.848C70.6808 180.016 71.0648 178.96 71.0648 177.68V155.84C71.0648 154.816 71.9928 154.304 73.8488 154.304H75.7208C77.5768 154.304 78.5048 154.816 78.5048 155.84V178.16C78.5048 181.392 77.4808 183.904 75.4328 185.696C73.4168 187.488 70.6008 188.384 66.9848 188.384ZM83.3531 188.096C81.8171 188.096 81.0491 187.744 81.0491 187.04C81.0491 186.784 81.0971 186.496 81.1931 186.176L88.5851 155.648C88.8091 154.752 89.7851 154.304 91.5131 154.304H94.6331C96.3931 154.304 97.3851 154.752 97.6091 155.648L105.001 186.176C105.065 186.624 105.097 186.912 105.097 187.04C105.097 187.744 104.409 188.096 103.033 188.096H100.489C98.9531 188.096 98.1051 187.76 97.9451 187.088L96.6971 181.232H89.4011L88.1051 187.088C87.9771 187.76 87.2251 188.096 85.8491 188.096H83.3531ZM95.8811 175.376L93.7211 165.2C93.4971 164.048 93.3051 162.832 93.1451 161.552H92.9051C92.7451 162.832 92.5531 164.048 92.3291 165.2L90.2171 175.376H95.8811ZM119.78 188.384C115.3 188.384 112.036 187.008 109.988 184.256C107.972 181.472 106.964 177.088 106.964 171.104C106.964 165.344 108.02 161.056 110.132 158.24C112.276 155.424 115.572 154.016 120.02 154.016C121.524 154.016 122.916 154.192 124.196 154.544C125.188 154.832 125.684 155.52 125.684 156.608C125.684 157.824 125.46 158.912 125.012 159.872C124.596 160.832 124.068 161.2 123.428 160.976C122.404 160.656 121.38 160.496 120.356 160.496C118.436 160.496 116.996 161.376 116.036 163.136C115.108 164.896 114.644 167.568 114.644 171.152C114.644 174.736 115.108 177.424 116.036 179.216C116.996 180.976 118.516 181.856 120.596 181.856C121.204 181.856 121.716 181.824 122.132 181.76C122.548 181.664 123.092 181.52 123.764 181.328C123.86 181.296 124.004 181.28 124.196 181.28C124.836 181.28 125.316 181.68 125.636 182.48C125.956 183.28 126.116 184.336 126.116 185.648C126.116 186.128 126.02 186.544 125.828 186.896C125.636 187.216 125.268 187.472 124.724 187.664C124.18 187.856 123.46 188.016 122.564 188.144C121.668 188.304 120.74 188.384 119.78 188.384ZM129.619 188.096C128.083 188.096 127.315 187.744 127.315 187.04C127.315 186.784 127.363 186.496 127.459 186.176L134.851 155.648C135.075 154.752 136.051 154.304 137.779 154.304H140.899C142.659 154.304 143.651 154.752 143.875 155.648L151.267 186.176C151.331 186.624 151.363 186.912 151.363 187.04C151.363 187.744 150.675 188.096 149.299 188.096H146.755C145.219 188.096 144.371 187.76 144.211 187.088L142.963 181.232H135.667L134.371 187.088C134.243 187.76 133.491 188.096 132.115 188.096H129.619ZM142.147 175.376L139.987 165.2C139.763 164.048 139.571 162.832 139.411 161.552H139.171C139.011 162.832 138.819 164.048 138.595 165.2L136.483 175.376H142.147ZM156.925 188.096C155.005 188.096 154.045 187.584 154.045 186.56V156.32C154.045 155.648 154.189 155.168 154.477 154.88C154.797 154.56 155.293 154.4 155.965 154.4H163.981C166.925 154.4 169.293 155.136 171.085 156.608C172.877 158.048 173.773 160.464 173.773 163.856C173.773 167.6 172.253 170.304 169.213 171.968V172.16C169.917 172.544 170.557 173.184 171.133 174.08C171.709 174.976 172.141 175.936 172.429 176.96L175.261 186.176C175.357 186.56 175.405 186.752 175.405 186.752C175.405 187.616 174.413 188.048 172.429 188.048H170.749C169.053 188.048 168.093 187.616 167.869 186.752L165.325 177.632C165.037 176.928 164.701 176.432 164.317 176.144C163.965 175.856 163.389 175.712 162.589 175.712H161.437V186.56C161.437 187.584 160.477 188.096 158.557 188.096H156.925ZM164.125 168.704C164.829 168.704 165.421 168.352 165.901 167.648C166.413 166.944 166.669 165.92 166.669 164.576C166.669 163.232 166.413 162.256 165.901 161.648C165.421 161.008 164.781 160.688 163.981 160.688H161.437V168.704H164.125ZM180.623 188C180.015 188 179.567 187.856 179.279 187.568C178.991 187.248 178.847 186.752 178.847 186.08V156.32C178.847 155.648 178.991 155.168 179.279 154.88C179.567 154.56 180.015 154.4 180.623 154.4H194.783C195.263 154.4 195.615 154.592 195.839 154.976C196.063 155.36 196.175 155.968 196.175 156.8V158.288C196.175 159.12 196.063 159.728 195.839 160.112C195.615 160.496 195.263 160.688 194.783 160.688H186.335V167.648H193.823C194.303 167.648 194.655 167.84 194.879 168.224C195.103 168.608 195.215 169.216 195.215 170.048V171.536C195.215 172.368 195.103 172.976 194.879 173.36C194.655 173.744 194.303 173.936 193.823 173.936H186.335V181.712H194.831C195.311 181.712 195.647 181.904 195.839 182.288C196.063 182.672 196.175 183.28 196.175 184.112V185.6C196.175 186.432 196.063 187.04 195.839 187.424C195.647 187.808 195.311 188 194.831 188H180.623Z" fill="white"/>
</svg>
