<svg width="145" height="131" viewBox="0 0 145 131" fill="none" xmlns="http://www.w3.org/2000/svg">
<path d="M124.048 14.5H137.75V0H7.25V14.5H20.9525C7.53853 27.9847 0.00592379 46.2297 0 65.25C0 94.0325 16.7475 118.827 41.035 130.5H103.965C116.263 124.601 126.641 115.345 133.902 103.799C141.163 92.2533 145.011 78.8892 145 65.25C145 45.4575 136.952 27.55 124.048 14.5ZM31.32 24.7225L41.325 14.5H103.675L113.68 24.7225C117.625 28.6602 120.971 33.1546 123.612 38.0625C115.645 36.774 108.08 33.6735 101.5 29C83.81 41.3975 61.19 41.3975 43.5 29C36.685 33.785 29 36.9025 21.3875 38.0625C23.9975 33.205 27.3325 28.71 31.32 24.7225ZM100.413 116H44.5875C35.4552 111.048 27.8353 103.715 22.5375 94.7787C17.2398 85.8427 14.4622 75.6383 14.5 65.25C14.5 61.1175 15.0075 56.985 15.8775 53.07C25.511 52.8091 34.9581 50.3544 43.5 45.8925C61.625 55.3175 83.375 55.3175 101.5 45.8925C110.2 50.3875 119.625 52.8525 129.122 53.07C129.992 56.985 130.5 61.1175 130.5 65.25C130.538 75.6383 127.76 85.8427 122.462 94.7787C117.165 103.715 109.545 111.048 100.413 116ZM108.75 83.375C108.75 93.38 96.57 101.5 81.5625 101.5C73.1525 101.5 65.685 98.89 60.3925 95.41C55.6075 101.5 45.8925 101.5 36.25 101.5C44.225 101.5 47.125 93.38 47.125 83.375C47.125 73.37 44.225 65.25 36.25 65.25C45.8925 65.25 55.6075 65.25 60.6825 71.8475C65.685 67.86 73.1525 65.25 81.5625 65.25C96.57 65.25 108.75 73.37 108.75 83.375Z" fill="white"/>
</svg>
